
<svg width="51" height="61" viewBox="0 0 51 61" fill="none" xmlns="http://www.w3.org/2000/svg">
<path d="M46.5296 39.6198C49.0992 35.6518 50.5946 30.9141 50.5946 25.8235C50.5946 11.8596 39.3591 0.54248 25.4988 0.54248C11.6386 0.54248 0.405273 11.8596 0.405273 25.8213C0.405273 30.9119 1.9007 35.6518 4.47027 39.6176C4.47027 39.6176 4.48129 39.633 4.48571 39.6396C4.82096 40.1558 5.17387 40.6586 5.54441 41.1461C9.28738 46.208 12.8782 48.2041 18.2048 52.0816C24.0387 56.3275 25.4988 60.5403 25.4988 60.5403C25.4988 60.5403 26.959 56.3253 32.7929 52.0816C38.1217 48.2041 41.7103 46.208 45.4533 41.1483C45.8238 40.6586 46.1767 40.1558 46.512 39.6396C46.5164 39.633 46.5208 39.6242 46.5274 39.6176L46.5296 39.6198Z" fill="#0C8BFF"/>
<path d="M14.6377 11.9175H33.7249C34.3401 11.9175 34.9302 12.1641 35.3652 12.6031C35.8003 13.0421 36.0447 13.6375 36.0447 14.2584V37.9066C36.0447 38.5274 35.8003 39.1229 35.3652 39.5619C34.9302 40.0009 34.3401 40.2475 33.7249 40.2475H14.6377V11.9175Z" fill="#F7FAFF"/>
<path d="M17.6427 11.9175H14.6377V40.2475H17.6427V11.9175Z" fill="#66B6FF"/>
<path d="M32.5201 31.5308H20.8447V37.342H32.5201V31.5308Z" fill="#339EFF"/>
<path d="M22.375 33.7086H28.536" stroke="white" stroke-width="0.8" stroke-miterlimit="10"/>
<path d="M22.375 35.1714H30.9961" stroke="white" stroke-width="0.8" stroke-miterlimit="10"/>
<path d="M20.7827 11.9175H23.9678V19.0126L22.3752 17.4441L20.7827 19.0126V11.9175Z" fill="#339EFF"/>
<rect x="29.6787" y="22.564" width="2.69968" height="19.737" transform="rotate(-36.8499 29.6787 22.564)" fill="#4ED98D"/>
<path d="M29.0773 19.5175L31.8351 20.9457L29.674 22.5654L29.0773 19.5175Z" fill="#CCE6FF"/>
<mask id="mask0_210_7263" style="mask-type:alpha" maskUnits="userSpaceOnUse" x="27" y="18" width="5" height="4">
<rect x="27.7329" y="20.0288" width="3.25636" height="1.88691" transform="rotate(-36.8499 27.7329 20.0288)" fill="#D9D9D9"/>
</mask>
<g mask="url(#mask0_210_7263)">
<path d="M29.0768 19.5097L31.8346 20.9379L29.6735 22.5576L29.0768 19.5097Z" fill="#0052F7"/>
</g>
</svg>