<svg width="52" height="61" viewBox="0 0 52 61" fill="none" xmlns="http://www.w3.org/2000/svg">
<path d="M47.0296 39.6198C49.5992 35.6518 51.0946 30.9141 51.0946 25.8235C51.0946 11.8596 39.8591 0.54248 25.9988 0.54248C12.1386 0.54248 0.905273 11.8596 0.905273 25.8213C0.905273 30.9119 2.4007 35.6518 4.97027 39.6176C4.97027 39.6176 4.98129 39.633 4.98571 39.6396C5.32096 40.1558 5.67387 40.6586 6.04441 41.1461C9.78738 46.208 13.3782 48.2041 18.7048 52.0816C24.5387 56.3275 25.9988 60.5403 25.9988 60.5403C25.9988 60.5403 27.459 56.3253 33.2929 52.0816C38.6217 48.2041 42.2103 46.208 45.9533 41.1483C46.3238 40.6586 46.6767 40.1558 47.012 39.6396C47.0164 39.633 47.0208 39.6242 47.0274 39.6176L47.0296 39.6198Z" fill="#0C8BFF"/>
<rect x="16.0679" y="11.3296" width="20.5436" height="28.5103" fill="#F7FAFF"/>
<rect width="23.1395" height="1.93294" transform="matrix(1 0 0 -1 14.7686 41.7749)" fill="#4ED98D"/>
<rect x="24.666" y="22.1772" width="3.33462" height="3.33462" fill="#0C8BFF"/>
<rect x="24.666" y="27.7593" width="3.33462" height="3.33462" fill="#0C8BFF"/>
<rect x="24.666" y="33.3413" width="3.33462" height="3.33462" fill="#0C8BFF"/>
<rect x="19.0186" y="22.1772" width="3.33462" height="3.33462" fill="#0C8BFF"/>
<rect x="19.0186" y="27.7593" width="3.33462" height="3.33462" fill="#0C8BFF"/>
<rect x="19.0186" y="33.3413" width="3.33462" height="3.33462" fill="#0C8BFF"/>
<rect x="30.3975" y="22.1772" width="3.33462" height="3.33462" fill="#0C8BFF"/>
<rect x="30.3975" y="27.7593" width="3.33462" height="3.33462" fill="#0C8BFF"/>
<rect x="30.3975" y="33.3413" width="3.33462" height="3.33462" fill="#0C8BFF"/>
<rect x="25.3477" y="13.6206" width="1.98425" height="6.38267" fill="#1DCA6B"/>
<rect x="29.5303" y="15.8179" width="1.98425" height="6.38267" transform="rotate(90 29.5303 15.8179)" fill="#1DCA6B"/>
</svg>
