
<svg width="52" height="61" viewBox="0 0 52 61" fill="none" xmlns="http://www.w3.org/2000/svg">
<path d="M47.0296 39.6198C49.5992 35.6518 51.0946 30.9141 51.0946 25.8235C51.0946 11.8596 39.8591 0.54248 25.9988 0.54248C12.1386 0.54248 0.905273 11.8596 0.905273 25.8213C0.905273 30.9119 2.4007 35.6518 4.97027 39.6176C4.97027 39.6176 4.98129 39.633 4.98571 39.6396C5.32096 40.1558 5.67387 40.6586 6.04441 41.1461C9.78738 46.208 13.3782 48.2041 18.7048 52.0816C24.5387 56.3275 25.9988 60.5403 25.9988 60.5403C25.9988 60.5403 27.459 56.3253 33.2929 52.0816C38.6217 48.2041 42.2103 46.208 45.9533 41.1483C46.3238 40.6586 46.6767 40.1558 47.012 39.6396C47.0164 39.633 47.0208 39.6242 47.0274 39.6176L47.0296 39.6198Z" fill="#A6D4FF"/>
<path d="M32.5365 34.3686C31.0392 34.3016 29.5648 35.1168 28.8737 36.4123C28.1826 37.7078 28.2402 39.0367 28.9313 40.1982C29.4612 41.1028 30.325 41.7393 31.3617 42.0074C31.7072 42.0967 32.0528 42.1414 32.3983 42.1414C32.813 42.1414 33.2391 42.0744 33.6423 41.9515C34.9323 41.5383 35.9229 40.5332 36.2684 39.2712C36.925 36.926 35.1972 34.4914 32.5365 34.3686ZM31.8109 40.3769C31.2234 40.2205 30.7397 39.8631 30.4402 39.3494C30.1407 38.8357 30.0601 38.2438 30.2214 37.6854C30.4172 36.9707 30.9816 36.4011 31.7072 36.1666C32.1219 36.0326 32.5711 36.0214 32.9973 36.1331C34.2067 36.4458 34.9208 37.6519 34.5983 38.8245C34.437 39.3941 34.0684 39.8631 33.5386 40.1535C33.0088 40.4439 32.3983 40.522 31.8224 40.3657L31.8109 40.3769Z" fill="white"/>
<path d="M31.9845 34.7811L29.4621 35.8979L18.5658 10.3795C18.347 9.85457 18.5888 9.25151 19.1187 9.01699L19.7407 8.73779L31.9845 34.7811Z" fill="white"/>
<path d="M23.5756 35.8884C22.5736 34.6711 21.0531 34.1573 19.5673 34.4589C18.5191 34.6711 17.6207 35.263 17.0333 36.134C16.4459 37.0051 16.25 38.0437 16.4689 39.06C16.6877 40.0763 17.2982 40.9474 18.1966 41.5169C18.8532 41.9301 19.6019 42.1535 20.3851 42.1535C22.2395 42.1535 23.8982 40.9362 24.3243 39.0377C24.5777 37.9544 24.2898 36.7706 23.5756 35.8995V35.8884ZM22.2856 39.462C21.9516 39.9534 21.4448 40.2885 20.8573 40.4113C20.2584 40.5342 19.6594 40.4113 19.1526 40.0986C18.1045 39.4397 17.8165 38.0661 18.4961 37.061C18.9108 36.4356 19.6249 36.067 20.3966 36.067C20.8343 36.067 21.2605 36.1899 21.6291 36.4244C22.6772 37.0833 22.9652 38.4569 22.2856 39.462Z" fill="white"/>
<path d="M20.3857 34.9491L22.9082 36.0658L33.793 10.5474C34.0118 10.0225 33.7699 9.41948 33.2401 9.18496L32.6181 8.90576L20.3857 34.9491Z" fill="white"/>
<path d="M26.2512 26.0257C26.741 26.0257 27.1381 25.6408 27.1381 25.1658C27.1381 24.6909 26.741 24.3059 26.2512 24.3059C25.7613 24.3059 25.3643 24.6909 25.3643 25.1658C25.3643 25.6408 25.7613 26.0257 26.2512 26.0257Z" fill="#0C8BFF"/>
</svg>