<svg width="52" height="62" viewBox="0 0 52 62" fill="none" xmlns="http://www.w3.org/2000/svg">
<path d="M51.623 26.5614C51.623 10.6317 37.0297 -1.93034 20.405 1.54427C10.4623 3.62903 2.55088 11.8612 0.786851 21.9108C-1.13755 32.8692 3.88727 42.8119 12.2263 48.104C17.7322 51.6321 22.6502 56.0154 25.9109 61.6283L26.0179 61.8421L26.1248 61.6283C29.3856 55.962 34.25 51.6321 39.7559 48.104C46.8655 43.5603 51.623 35.6489 51.623 26.5614Z" fill="#A6D4FF"/>
<path d="M14.8335 24.9292H36.4874V29.6449C36.4874 35.4298 31.7942 40.1229 26.0094 40.1229H25.3003C19.5154 40.1229 14.8223 35.4298 14.8223 29.6449V24.9292H14.8335Z" fill="#F7FAFF"/>
<path d="M29.8108 38.8063H21.5161V41.0347H29.8108V38.8063Z" fill="#F7FAFF"/>
<path d="M34.1667 35.4533L34.0991 34.114C36.1475 34.0014 38.6685 32.9435 39.3775 30.8727C39.6814 30.0061 39.6251 29.1282 39.2537 28.5092C38.9386 28.0027 38.4322 27.6313 37.8469 27.5075C37.2954 27.3837 36.744 27.4963 36.2825 27.8001L35.5397 26.6859C36.305 26.1682 37.2279 25.9994 38.1395 26.202C39.0737 26.4046 39.8953 26.9898 40.4017 27.8114C40.987 28.768 41.077 30.0736 40.6493 31.3116C39.7377 33.9677 36.6539 35.3182 34.1779 35.4533H34.1667Z" fill="#F7FAFF"/>
<path d="M27.5999 10.2983C27.5999 10.2983 23.5033 13.2245 26.4632 17.3437C29.4232 21.4629 27.1948 22.746 27.1948 22.746C27.1948 22.746 31.1452 20.9115 28.7367 16.7022C26.3282 12.493 27.5999 10.3096 27.5999 10.3096V10.2983Z" fill="#F7FAFF"/>
<path d="M23.035 13.8882C23.035 13.8882 20.4127 16.3192 22.8662 18.964C25.3197 21.6089 23.8679 22.7231 23.8679 22.7231C23.8679 22.7231 26.4902 21.0686 24.4193 18.3113C22.3485 15.5539 23.035 13.8882 23.035 13.8882Z" fill="#F7FAFF"/>
</svg>
