<svg width="51" height="61" viewBox="0 0 51 61" fill="none" xmlns="http://www.w3.org/2000/svg">
<path d="M46.1243 40.0338C48.6939 36.0659 50.1893 31.3282 50.1893 26.2376C50.1893 12.2737 38.9538 0.956543 25.0936 0.956543C11.2333 0.956543 0 12.2737 0 26.2354C0 31.326 1.49542 36.0659 4.06499 40.0316C4.06499 40.0316 4.07602 40.0471 4.08043 40.0537C4.41569 40.5698 4.76859 41.0727 5.13914 41.5602C8.88211 46.6221 12.4729 48.6182 17.7995 52.4957C23.6334 56.7416 25.0936 60.9543 25.0936 60.9543C25.0936 60.9543 26.5537 56.7394 32.3876 52.4957C37.7164 48.6182 41.305 46.6221 45.048 41.5624C45.4185 41.0727 45.7714 40.5698 46.1067 40.0537C46.1111 40.0471 46.1155 40.0383 46.1221 40.0316L46.1243 40.0338Z" fill="#A6D4FF"/>
<path d="M36.6292 35.5034H15.0815V21.2716L25.8497 13.9214L36.6292 21.2716V35.5034Z" fill="#F7FAFF"/>
<path d="M38.1901 35.5034H12.6904V37.6753H38.1901V35.5034Z" fill="#0C8BFF"/>
<path d="M25.8492 21.4656H10.8516L18.3504 15.8301L25.8492 10.1831L33.348 15.8301L40.8469 21.4656H25.8492Z" fill="#F7FAFF"/>
<path d="M21.5384 23.3882H18.6807V26.246H21.5384V23.3882Z" fill="#4CAAFF"/>
<path d="M25.4149 23.3882H22.5571V26.246H25.4149V23.3882Z" fill="#4CAAFF"/>
<path d="M21.5384 27.2632H18.6807V30.121H21.5384V27.2632Z" fill="#4CAAFF"/>
<path d="M25.4154 27.2632H22.5576V30.121H25.4154V27.2632Z" fill="#4CAAFF"/>
<path d="M33.4781 39.5668C36.4928 39.5668 38.9366 37.123 38.9366 34.1083C38.9366 31.0936 36.4928 28.6497 33.4781 28.6497C30.4634 28.6497 28.0195 31.0936 28.0195 34.1083C28.0195 37.123 30.4634 39.5668 33.4781 39.5668Z" fill="#A6D4FF" stroke="#0C8BFF" stroke-width="2" stroke-miterlimit="10"/>
<path d="M37.3481 38.2905L40.8454 42.0359" stroke="#0C8BFF" stroke-width="2" stroke-miterlimit="10"/>
</svg>
